M48
; DRILL file {KiCad (6.0.9)} date 2022年11月10日 星期四 16时14分35秒
; FORMAT={-:-/ absolute / inch / decimal}
; #@! TF.CreationDate,2022-11-10T16:14:35+08:00
; #@! TF.GenerationSoftware,Kicad,Pcbnew,(6.0.9)
; #@! TF.FileFunction,Plated,1,2,PTH
FMAT,2
INCH
; #@! TA.AperFunction,Plated,PTH,ViaDrill
T1C0.0157
; #@! TA.AperFunction,Plated,PTH,ComponentDrill
T2C0.0236
%
G90
G05
T1
X1.568Y-2.574
X1.5839Y-2.218
X1.728Y-2.506
X1.764Y-2.59
X1.7709Y-2.4474
X1.9288Y-2.6468
X1.968Y-2.556
X2.01Y-2.64
X2.044Y-2.2145
X2.068Y-2.418
X2.104Y-2.21
X2.114Y-2.5935
X2.134Y-2.3625
X2.1428Y-2.4132
X2.2031Y-2.2357
X2.2053Y-2.332
X2.2348Y-2.5591
X2.3065Y-2.5277
X2.314Y-2.59
X2.316Y-2.464
X2.374Y-2.6475
X2.4084Y-2.6041
X2.414Y-2.246
X2.414Y-2.514
X2.414Y-2.658
X2.458Y-2.306
X2.458Y-2.574
T2
G00X1.6481Y-2.2199
M15
G01X1.6796Y-2.2199
M16
G05
G00X1.6481Y-2.5601
M15
G01X1.6796Y-2.5601
M16
G05
G00X1.8063Y-2.2199
M15
G01X1.8496Y-2.2199
M16
G05
G00X1.8063Y-2.5601
M15
G01X1.8496Y-2.5601
M16
G05
T0
M30
