%TF.GenerationSoftware,KiCad,Pcbnew,(6.0.8)*%
%TF.CreationDate,2022-11-02T12:38:53+08:00*%
%TF.ProjectId,usb2can_pcb,75736232-6361-46e5-9f70-63622e6b6963,rev?*%
%TF.SameCoordinates,Original*%
%TF.FileFunction,Copper,L2,Bot*%
%TF.FilePolarity,Positive*%
%FSLAX46Y46*%
G04 Gerber Fmt 4.6, Leading zero omitted, Abs format (unit mm)*
G04 Created by KiCad (PCBNEW (6.0.8)) date 2022-11-02 12:38:53*
%MOMM*%
%LPD*%
G01*
G04 APERTURE LIST*
%TA.AperFunction,ComponentPad*%
%ADD10O,2.000000X0.900000*%
%TD*%
%TA.AperFunction,ComponentPad*%
%ADD11O,1.700000X0.900000*%
%TD*%
%TA.AperFunction,ViaPad*%
%ADD12C,0.800000*%
%TD*%
%TA.AperFunction,Conductor*%
%ADD13C,0.250000*%
%TD*%
%TA.AperFunction,Conductor*%
%ADD14C,0.200000*%
%TD*%
G04 APERTURE END LIST*
D10*
%TO.P,J1,S1,SHIELD*%
%TO.N,GND*%
X46430800Y-56386000D03*
D11*
X42260800Y-65026000D03*
D10*
X46430800Y-65026000D03*
D11*
X42260800Y-56386000D03*
%TD*%
D12*
%TO.N,+3.3V*%
X58586113Y-64203626D03*
X43891200Y-63652400D03*
X56013357Y-59232586D03*
X53696160Y-65875477D03*
X49987200Y-64922400D03*
X55958468Y-56787592D03*
%TO.N,GND*%
X58775600Y-65786000D03*
X54203600Y-60008100D03*
X60299600Y-67247500D03*
X51054000Y-67056000D03*
X58826400Y-62585600D03*
%TO.N,Net-(C2-Pad2)*%
X48990704Y-67227904D03*
X44805600Y-65786000D03*
%TO.N,/LEDRX*%
X53441600Y-56134000D03*
X40230356Y-56336124D03*
%TO.N,/LEDTX*%
X39827200Y-65379600D03*
X51917600Y-56248900D03*
%TO.N,/CAN+*%
X61315600Y-67513200D03*
X61315600Y-58572400D03*
X61323776Y-65317364D03*
%TO.N,/CAN-*%
X62433200Y-65481200D03*
X62433200Y-64414400D03*
X62433200Y-57302400D03*
%TO.N,/BOOT0*%
X44981300Y-62164927D03*
X52527200Y-61417200D03*
%TO.N,/CAN_TX*%
X54427901Y-61294499D03*
X56763469Y-65001667D03*
%TD*%
D13*
%TO.N,+3.3V*%
X55962343Y-59283600D02*
X53746400Y-59283600D01*
X52984400Y-64262000D02*
X50139600Y-64262000D01*
X49987200Y-64414400D02*
X49987200Y-64922400D01*
X43891200Y-63652400D02*
X44622601Y-62920999D01*
X50139600Y-64262000D02*
X49987200Y-64414400D01*
X56013357Y-59232586D02*
X55962343Y-59283600D01*
X44622601Y-62920999D02*
X47985799Y-62920999D01*
X47985799Y-62920999D02*
X49987200Y-64922400D01*
X53238400Y-59791600D02*
X53238400Y-61103095D01*
X56013357Y-59232586D02*
X55958468Y-59177697D01*
X56914262Y-65875477D02*
X53696160Y-65875477D01*
X55958468Y-59177697D02*
X55958468Y-56787592D01*
X53696160Y-64973760D02*
X52984400Y-64262000D01*
X53696160Y-65875477D02*
X53696160Y-64973760D01*
X53252200Y-61116895D02*
X53252200Y-63029000D01*
X58586113Y-64203626D02*
X56914262Y-65875477D01*
X53746400Y-59283600D02*
X53238400Y-59791600D01*
X53238400Y-61103095D02*
X53252200Y-61116895D01*
X52019200Y-64262000D02*
X50139600Y-64262000D01*
X53252200Y-63029000D02*
X52019200Y-64262000D01*
%TO.N,GND*%
X59740800Y-63144400D02*
X59182000Y-62585600D01*
X51054000Y-67056000D02*
X49024000Y-65026000D01*
X54593984Y-60398484D02*
X55397031Y-60398484D01*
X58775600Y-65786000D02*
X59740800Y-64820800D01*
X59740800Y-64820800D02*
X59740800Y-63144400D01*
X51054000Y-67056000D02*
X60108100Y-67056000D01*
X60108100Y-67056000D02*
X60299600Y-67247500D01*
X55821726Y-60823179D02*
X56403579Y-60823179D01*
X60237100Y-67247500D02*
X58775600Y-65786000D01*
X60299600Y-67247500D02*
X60237100Y-67247500D01*
X46430800Y-56386000D02*
X42260800Y-56386000D01*
X54203600Y-60008100D02*
X54593984Y-60398484D01*
X49024000Y-65026000D02*
X46430800Y-65026000D01*
X56403579Y-60823179D02*
X58166000Y-62585600D01*
X59182000Y-62585600D02*
X58826400Y-62585600D01*
X58166000Y-62585600D02*
X58826400Y-62585600D01*
X42260800Y-56386000D02*
X42260800Y-65026000D01*
X55397031Y-60398484D02*
X55821726Y-60823179D01*
X46430800Y-65026000D02*
X42260800Y-65026000D01*
%TO.N,Net-(C2-Pad2)*%
X48990704Y-67227904D02*
X46247504Y-67227904D01*
X46247504Y-67227904D02*
X44805600Y-65786000D01*
%TO.N,/LEDRX*%
X41402000Y-55524400D02*
X52832000Y-55524400D01*
X52832000Y-55524400D02*
X53441600Y-56134000D01*
X40590276Y-56336124D02*
X41402000Y-55524400D01*
X40230356Y-56336124D02*
X40590276Y-56336124D01*
%TO.N,/LEDTX*%
X54203600Y-55870695D02*
X53247705Y-54914800D01*
X39471600Y-57099200D02*
X39471600Y-65024000D01*
X40423175Y-55118000D02*
X39471600Y-56069575D01*
X41300400Y-54914800D02*
X41097200Y-55118000D01*
X39471600Y-56069575D02*
X39471600Y-57099200D01*
X52476400Y-54914800D02*
X41300400Y-54914800D01*
X53741905Y-56859000D02*
X54203600Y-56397305D01*
X52527700Y-56859000D02*
X53741905Y-56859000D01*
X41097200Y-55118000D02*
X40423175Y-55118000D01*
X39471600Y-65024000D02*
X39827200Y-65379600D01*
X53247705Y-54914800D02*
X52476400Y-54914800D01*
X54203600Y-56397305D02*
X54203600Y-55870695D01*
X51917600Y-56248900D02*
X52527700Y-56859000D01*
D14*
%TO.N,/CAN+*%
X61323776Y-65317364D02*
X61315600Y-65325540D01*
X61315600Y-67513200D02*
X61315600Y-58572400D01*
X61315600Y-65325540D02*
X61315600Y-67513200D01*
%TO.N,/CAN-*%
X62433200Y-57302400D02*
X62433200Y-64414400D01*
X62433200Y-64414400D02*
X62433200Y-65481200D01*
D13*
%TO.N,/BOOT0*%
X44981300Y-62164927D02*
X51779473Y-62164927D01*
X51779473Y-62164927D02*
X52527200Y-61417200D01*
%TO.N,/CAN_TX*%
X54427901Y-61294499D02*
X56763469Y-63630067D01*
X56763469Y-63630067D02*
X56763469Y-65001667D01*
%TD*%
%TA.AperFunction,Conductor*%
%TO.N,GND*%
G36*
X64491122Y-53692494D02*
G01*
X64505954Y-53694804D01*
X64505957Y-53694804D01*
X64514826Y-53696185D01*
X64523731Y-53695021D01*
X64532700Y-53695130D01*
X64532690Y-53695944D01*
X64554197Y-53696236D01*
X64560382Y-53697215D01*
X64564025Y-53697792D01*
X64601524Y-53709976D01*
X64613965Y-53716316D01*
X64622473Y-53720651D01*
X64654361Y-53743821D01*
X64670979Y-53760439D01*
X64694150Y-53792329D01*
X64704824Y-53813277D01*
X64717005Y-53850762D01*
X64718424Y-53859717D01*
X64719857Y-53879448D01*
X64718615Y-53887422D01*
X64721076Y-53906242D01*
X64722742Y-53918981D01*
X64723806Y-53935319D01*
X64723806Y-67468936D01*
X64722306Y-67488322D01*
X64718615Y-67512026D01*
X64719779Y-67520931D01*
X64719670Y-67529900D01*
X64718856Y-67529890D01*
X64718564Y-67551397D01*
X64717008Y-67561224D01*
X64704823Y-67598726D01*
X64694149Y-67619673D01*
X64670979Y-67651561D01*
X64654361Y-67668179D01*
X64622471Y-67691350D01*
X64601523Y-67702024D01*
X64564038Y-67714205D01*
X64555083Y-67715624D01*
X64535352Y-67717057D01*
X64527378Y-67715815D01*
X64517032Y-67717168D01*
X64495819Y-67719942D01*
X64479481Y-67721006D01*
X62347200Y-67721006D01*
X62279079Y-67701004D01*
X62232586Y-67647348D01*
X62221890Y-67581835D01*
X62222391Y-67577074D01*
X62229104Y-67513200D01*
X62209142Y-67323272D01*
X62150127Y-67141644D01*
X62054640Y-66976256D01*
X61956464Y-66867220D01*
X61925746Y-66803213D01*
X61924100Y-66782910D01*
X61924100Y-66443034D01*
X61944102Y-66374913D01*
X61997758Y-66328420D01*
X62068032Y-66318316D01*
X62101347Y-66327927D01*
X62150912Y-66349994D01*
X62244312Y-66369847D01*
X62331256Y-66388328D01*
X62331261Y-66388328D01*
X62337713Y-66389700D01*
X62528687Y-66389700D01*
X62535139Y-66388328D01*
X62535144Y-66388328D01*
X62622088Y-66369847D01*
X62715488Y-66349994D01*
X62724596Y-66345939D01*
X62883922Y-66275003D01*
X62883924Y-66275002D01*
X62889952Y-66272318D01*
X62922881Y-66248394D01*
X63026096Y-66173403D01*
X63044453Y-66160066D01*
X63134676Y-66059863D01*
X63167821Y-66023052D01*
X63167822Y-66023051D01*
X63172240Y-66018144D01*
X63267727Y-65852756D01*
X63326742Y-65671128D01*
X63335291Y-65589794D01*
X63346014Y-65487765D01*
X63346704Y-65481200D01*
X63334741Y-65367375D01*
X63327432Y-65297835D01*
X63327432Y-65297833D01*
X63326742Y-65291272D01*
X63267727Y-65109644D01*
X63210659Y-65010799D01*
X63193921Y-64941805D01*
X63210659Y-64884800D01*
X63212394Y-64881796D01*
X63267727Y-64785956D01*
X63326742Y-64604328D01*
X63328408Y-64588482D01*
X63346014Y-64420965D01*
X63346704Y-64414400D01*
X63343803Y-64386803D01*
X63327432Y-64231035D01*
X63327432Y-64231033D01*
X63326742Y-64224472D01*
X63267727Y-64042844D01*
X63172240Y-63877456D01*
X63152531Y-63855567D01*
X63074064Y-63768420D01*
X63043346Y-63704413D01*
X63041700Y-63684110D01*
X63041700Y-58032690D01*
X63061702Y-57964569D01*
X63074064Y-57948380D01*
X63167821Y-57844252D01*
X63167822Y-57844251D01*
X63172240Y-57839344D01*
X63267727Y-57673956D01*
X63326742Y-57492328D01*
X63328037Y-57480013D01*
X63346014Y-57308965D01*
X63346704Y-57302400D01*
X63340487Y-57243252D01*
X63327432Y-57119035D01*
X63327432Y-57119033D01*
X63326742Y-57112472D01*
X63267727Y-56930844D01*
X63260521Y-56918362D01*
X63200201Y-56813886D01*
X63172240Y-56765456D01*
X63127243Y-56715481D01*
X63048875Y-56628445D01*
X63048874Y-56628444D01*
X63044453Y-56623534D01*
X62889952Y-56511282D01*
X62883924Y-56508598D01*
X62883922Y-56508597D01*
X62721519Y-56436291D01*
X62721518Y-56436291D01*
X62715488Y-56433606D01*
X62601938Y-56409470D01*
X62535144Y-56395272D01*
X62535139Y-56395272D01*
X62528687Y-56393900D01*
X62337713Y-56393900D01*
X62331261Y-56395272D01*
X62331256Y-56395272D01*
X62264462Y-56409470D01*
X62150912Y-56433606D01*
X62144882Y-56436291D01*
X62144881Y-56436291D01*
X61982478Y-56508597D01*
X61982476Y-56508598D01*
X61976448Y-56511282D01*
X61821947Y-56623534D01*
X61817526Y-56628444D01*
X61817525Y-56628445D01*
X61739158Y-56715481D01*
X61694160Y-56765456D01*
X61666199Y-56813886D01*
X61605880Y-56918362D01*
X61598673Y-56930844D01*
X61539658Y-57112472D01*
X61538968Y-57119033D01*
X61538968Y-57119035D01*
X61525913Y-57243252D01*
X61519696Y-57302400D01*
X61520386Y-57308965D01*
X61538364Y-57480013D01*
X61539658Y-57492328D01*
X61541698Y-57498605D01*
X61541698Y-57498607D01*
X61542200Y-57500152D01*
X61542227Y-57501095D01*
X61543071Y-57505066D01*
X61542345Y-57505220D01*
X61544226Y-57571119D01*
X61507562Y-57631916D01*
X61443849Y-57663240D01*
X61412844Y-57664274D01*
X61411087Y-57663900D01*
X61220113Y-57663900D01*
X61213661Y-57665272D01*
X61213656Y-57665272D01*
X61145879Y-57679679D01*
X61033312Y-57703606D01*
X61027282Y-57706291D01*
X61027281Y-57706291D01*
X60864878Y-57778597D01*
X60864876Y-57778598D01*
X60858848Y-57781282D01*
X60704347Y-57893534D01*
X60699926Y-57898444D01*
X60699925Y-57898445D01*
X60616848Y-57990712D01*
X60576560Y-58035456D01*
X60573259Y-58041174D01*
X60497342Y-58172666D01*
X60481073Y-58200844D01*
X60422058Y-58382472D01*
X60421368Y-58389033D01*
X60421368Y-58389035D01*
X60404870Y-58546009D01*
X60402096Y-58572400D01*
X60402786Y-58578965D01*
X60421133Y-58753524D01*
X60422058Y-58762328D01*
X60481073Y-58943956D01*
X60576560Y-59109344D01*
X60580978Y-59114251D01*
X60580979Y-59114252D01*
X60674736Y-59218380D01*
X60705454Y-59282387D01*
X60707100Y-59302690D01*
X60707100Y-64596155D01*
X60687098Y-64664276D01*
X60674742Y-64680459D01*
X60584736Y-64780420D01*
X60545503Y-64848374D01*
X60496359Y-64933494D01*
X60489249Y-64945808D01*
X60430234Y-65127436D01*
X60429544Y-65133997D01*
X60429544Y-65133999D01*
X60413393Y-65287671D01*
X60410272Y-65317364D01*
X60410962Y-65323929D01*
X60428182Y-65487765D01*
X60430234Y-65507292D01*
X60489249Y-65688920D01*
X60584736Y-65854308D01*
X60674737Y-65954264D01*
X60705453Y-66018270D01*
X60707100Y-66038573D01*
X60707100Y-66782910D01*
X60687098Y-66851031D01*
X60674736Y-66867220D01*
X60576560Y-66976256D01*
X60481073Y-67141644D01*
X60422058Y-67323272D01*
X60402096Y-67513200D01*
X60408810Y-67577074D01*
X60409310Y-67581835D01*
X60396538Y-67651674D01*
X60348036Y-67703520D01*
X60284000Y-67721006D01*
X49959162Y-67721006D01*
X49891041Y-67701004D01*
X49844548Y-67647348D01*
X49834444Y-67577074D01*
X49839327Y-67556077D01*
X49884246Y-67417832D01*
X49904208Y-67227904D01*
X49884246Y-67037976D01*
X49825231Y-66856348D01*
X49811367Y-66832334D01*
X49733045Y-66696678D01*
X49729744Y-66690960D01*
X49698416Y-66656166D01*
X49606379Y-66553949D01*
X49606378Y-66553948D01*
X49601957Y-66549038D01*
X49447456Y-66436786D01*
X49441428Y-66434102D01*
X49441426Y-66434101D01*
X49279023Y-66361795D01*
X49279022Y-66361795D01*
X49272992Y-66359110D01*
X49179592Y-66339257D01*
X49092648Y-66320776D01*
X49092643Y-66320776D01*
X49086191Y-66319404D01*
X48895217Y-66319404D01*
X48888765Y-66320776D01*
X48888760Y-66320776D01*
X48801816Y-66339257D01*
X48708416Y-66359110D01*
X48702386Y-66361795D01*
X48702385Y-66361795D01*
X48539982Y-66434101D01*
X48539980Y-66434102D01*
X48533952Y-66436786D01*
X48528611Y-66440666D01*
X48528610Y-66440667D01*
X48401033Y-66533358D01*
X48379451Y-66549038D01*
X48375036Y-66553941D01*
X48370124Y-66558364D01*
X48368999Y-66557115D01*
X48315690Y-66589955D01*
X48282504Y-66594404D01*
X46562099Y-66594404D01*
X46493978Y-66574402D01*
X46473004Y-66557499D01*
X46108495Y-66192990D01*
X46074469Y-66130678D01*
X46079534Y-66059863D01*
X46122081Y-66003027D01*
X46162093Y-65982998D01*
X46173925Y-65979524D01*
X46175129Y-65978135D01*
X46176800Y-65970452D01*
X46176800Y-65965885D01*
X46684800Y-65965885D01*
X46689275Y-65981124D01*
X46690665Y-65982329D01*
X46698348Y-65984000D01*
X47026247Y-65984000D01*
X47032622Y-65983677D01*
X47168077Y-65969918D01*
X47180517Y-65967364D01*
X47354044Y-65912984D01*
X47365732Y-65907975D01*
X47524779Y-65819813D01*
X47535212Y-65812562D01*
X47673291Y-65694215D01*
X47682044Y-65685024D01*
X47793511Y-65541320D01*
X47800235Y-65530560D01*
X47880532Y-65367375D01*
X47884955Y-65355481D01*
X47900051Y-65297530D01*
X47899617Y-65283436D01*
X47891436Y-65280000D01*
X46702915Y-65280000D01*
X46687676Y-65284475D01*
X46686471Y-65285865D01*
X46684800Y-65293548D01*
X46684800Y-65965885D01*
X46176800Y-65965885D01*
X46176800Y-64898000D01*
X46196802Y-64829879D01*
X46250458Y-64783386D01*
X46302800Y-64772000D01*
X47890029Y-64772000D01*
X47903560Y-64768027D01*
X47904437Y-64761925D01*
X47848490Y-64609864D01*
X47842923Y-64598451D01*
X47747092Y-64443892D01*
X47739340Y-64433826D01*
X47614392Y-64301697D01*
X47604774Y-64293395D01*
X47455813Y-64189092D01*
X47444719Y-64182892D01*
X47277820Y-64110668D01*
X47265717Y-64106829D01*
X47086200Y-64069325D01*
X47076648Y-64068085D01*
X47073416Y-64068000D01*
X46819621Y-64068000D01*
X46751500Y-64047998D01*
X46705007Y-63994342D01*
X46694903Y-63924068D01*
X46700922Y-63899734D01*
X46740556Y-63788428D01*
X46740557Y-63788422D01*
X46742919Y-63781790D01*
X46744028Y-63772495D01*
X46753842Y-63690186D01*
X46756776Y-63665579D01*
X46784703Y-63600307D01*
X46843486Y-63560494D01*
X46881890Y-63554499D01*
X47671205Y-63554499D01*
X47739326Y-63574501D01*
X47760300Y-63591404D01*
X49040078Y-64871182D01*
X49074104Y-64933494D01*
X49076292Y-64947103D01*
X49080892Y-64990863D01*
X49089464Y-65072420D01*
X49093658Y-65112328D01*
X49152673Y-65293956D01*
X49248160Y-65459344D01*
X49252578Y-65464251D01*
X49252579Y-65464252D01*
X49371270Y-65596072D01*
X49375947Y-65601266D01*
X49399219Y-65618174D01*
X49491230Y-65685024D01*
X49530448Y-65713518D01*
X49536476Y-65716202D01*
X49536478Y-65716203D01*
X49693246Y-65786000D01*
X49704912Y-65791194D01*
X49798313Y-65811047D01*
X49885256Y-65829528D01*
X49885261Y-65829528D01*
X49891713Y-65830900D01*
X50082687Y-65830900D01*
X50089139Y-65829528D01*
X50089144Y-65829528D01*
X50176087Y-65811047D01*
X50269488Y-65791194D01*
X50281154Y-65786000D01*
X50437922Y-65716203D01*
X50437924Y-65716202D01*
X50443952Y-65713518D01*
X50483171Y-65685024D01*
X50575181Y-65618174D01*
X50598453Y-65601266D01*
X50603130Y-65596072D01*
X50721821Y-65464252D01*
X50721822Y-65464251D01*
X50726240Y-65459344D01*
X50821727Y-65293956D01*
X50880742Y-65112328D01*
X50881743Y-65102807D01*
X50891673Y-65008329D01*
X50918687Y-64942672D01*
X50976908Y-64902043D01*
X51016983Y-64895500D01*
X51940433Y-64895500D01*
X51951616Y-64896027D01*
X51959109Y-64897702D01*
X51967035Y-64897453D01*
X51967036Y-64897453D01*
X52027186Y-64895562D01*
X52031145Y-64895500D01*
X52669806Y-64895500D01*
X52737927Y-64915502D01*
X52758901Y-64932405D01*
X52971078Y-65144582D01*
X53005104Y-65206894D01*
X53000039Y-65277709D01*
X52975620Y-65317987D01*
X52957120Y-65338533D01*
X52953818Y-65344252D01*
X52953816Y-65344255D01*
X52864937Y-65498198D01*
X52861633Y-65503921D01*
X52802618Y-65685549D01*
X52801928Y-65692110D01*
X52801928Y-65692112D01*
X52788506Y-65819813D01*
X52782656Y-65875477D01*
X52783346Y-65882042D01*
X52801889Y-66058466D01*
X52802618Y-66065405D01*
X52861633Y-66247033D01*
X52864936Y-66252755D01*
X52864937Y-66252756D01*
X52884551Y-66286728D01*
X52957120Y-66412421D01*
X52961538Y-66417328D01*
X52961539Y-66417329D01*
X53043612Y-66508480D01*
X53084907Y-66554343D01*
X53239408Y-66666595D01*
X53245436Y-66669279D01*
X53245438Y-66669280D01*
X53347009Y-66714502D01*
X53413872Y-66744271D01*
X53507273Y-66764124D01*
X53594216Y-66782605D01*
X53594221Y-66782605D01*
X53600673Y-66783977D01*
X53791647Y-66783977D01*
X53798099Y-66782605D01*
X53798104Y-66782605D01*
X53885047Y-66764124D01*
X53978448Y-66744271D01*
X54045311Y-66714502D01*
X54146882Y-66669280D01*
X54146884Y-66669279D01*
X54152912Y-66666595D01*
X54258398Y-66589955D01*
X54301879Y-66558364D01*
X54307413Y-66554343D01*
X54311828Y-66549440D01*
X54316740Y-66545017D01*
X54317865Y-66546266D01*
X54371174Y-66513426D01*
X54404360Y-66508977D01*
X56835495Y-66508977D01*
X56846678Y-66509504D01*
X56854171Y-66511179D01*
X56862097Y-66510930D01*
X56862098Y-66510930D01*
X56922248Y-66509039D01*
X56926207Y-66508977D01*
X56954118Y-66508977D01*
X56958053Y-66508480D01*
X56958118Y-66508472D01*
X56969955Y-66507539D01*
X57002213Y-66506525D01*
X57006232Y-66506399D01*
X57014151Y-66506150D01*
X57033605Y-66500498D01*
X57052962Y-66496490D01*
X57065192Y-66494945D01*
X57065193Y-66494945D01*
X57073059Y-66493951D01*
X57080430Y-66491032D01*
X57080432Y-66491032D01*
X57114174Y-66477673D01*
X57125404Y-66473828D01*
X57160245Y-66463706D01*
X57160246Y-66463706D01*
X57167855Y-66461495D01*
X57174674Y-66457462D01*
X57174679Y-66457460D01*
X57185290Y-66451184D01*
X57203038Y-66442489D01*
X57221879Y-66435029D01*
X57250751Y-66414053D01*
X57257649Y-66409041D01*
X57267569Y-66402525D01*
X57298797Y-66384057D01*
X57298800Y-66384055D01*
X57305624Y-66380019D01*
X57319945Y-66365698D01*
X57334979Y-66352857D01*
X57337031Y-66351366D01*
X57351369Y-66340949D01*
X57379560Y-66306872D01*
X57387550Y-66298093D01*
X58536612Y-65149031D01*
X58598924Y-65115005D01*
X58625707Y-65112126D01*
X58681600Y-65112126D01*
X58688052Y-65110754D01*
X58688057Y-65110754D01*
X58775000Y-65092273D01*
X58868401Y-65072420D01*
X58874432Y-65069735D01*
X59036835Y-64997429D01*
X59036837Y-64997428D01*
X59042865Y-64994744D01*
X59197366Y-64882492D01*
X59231898Y-64844140D01*
X59320734Y-64745478D01*
X59320735Y-64745477D01*
X59325153Y-64740570D01*
X59410721Y-64592363D01*
X59417336Y-64580905D01*
X59417337Y-64580904D01*
X59420640Y-64575182D01*
X59479655Y-64393554D01*
X59482449Y-64366976D01*
X59498927Y-64210191D01*
X59499617Y-64203626D01*
X59488249Y-64095465D01*
X59480345Y-64020261D01*
X59480345Y-64020259D01*
X59479655Y-64013698D01*
X59420640Y-63832070D01*
X59393964Y-63785865D01*
X59350301Y-63710240D01*
X59325153Y-63666682D01*
X59318957Y-63659800D01*
X59201788Y-63529671D01*
X59201787Y-63529670D01*
X59197366Y-63524760D01*
X59075960Y-63436553D01*
X59048207Y-63416389D01*
X59048206Y-63416388D01*
X59042865Y-63412508D01*
X59036837Y-63409824D01*
X59036835Y-63409823D01*
X58874432Y-63337517D01*
X58874431Y-63337517D01*
X58868401Y-63334832D01*
X58775000Y-63314979D01*
X58688057Y-63296498D01*
X58688052Y-63296498D01*
X58681600Y-63295126D01*
X58490626Y-63295126D01*
X58484174Y-63296498D01*
X58484169Y-63296498D01*
X58397226Y-63314979D01*
X58303825Y-63334832D01*
X58297795Y-63337517D01*
X58297794Y-63337517D01*
X58135391Y-63409823D01*
X58135389Y-63409824D01*
X58129361Y-63412508D01*
X58124020Y-63416388D01*
X58124019Y-63416389D01*
X58096266Y-63436553D01*
X57974860Y-63524760D01*
X57970439Y-63529670D01*
X57970438Y-63529671D01*
X57853270Y-63659800D01*
X57847073Y-63666682D01*
X57821925Y-63710240D01*
X57778263Y-63785865D01*
X57751586Y-63832070D01*
X57692571Y-64013698D01*
X57691881Y-64020259D01*
X57691881Y-64020261D01*
X57675206Y-64178918D01*
X57648193Y-64244575D01*
X57638991Y-64254843D01*
X57612064Y-64281770D01*
X57549752Y-64315796D01*
X57478937Y-64310731D01*
X57422101Y-64268184D01*
X57397290Y-64201664D01*
X57396969Y-64192675D01*
X57396969Y-63708834D01*
X57397496Y-63697651D01*
X57399171Y-63690158D01*
X57398726Y-63675982D01*
X57397031Y-63622068D01*
X57396969Y-63618110D01*
X57396969Y-63590211D01*
X57396465Y-63586220D01*
X57395532Y-63574378D01*
X57394908Y-63554499D01*
X57394143Y-63530178D01*
X57391931Y-63522564D01*
X57391930Y-63522559D01*
X57388492Y-63510726D01*
X57384481Y-63491362D01*
X57382936Y-63479131D01*
X57381943Y-63471270D01*
X57379026Y-63463903D01*
X57379025Y-63463898D01*
X57365667Y-63430159D01*
X57361823Y-63418932D01*
X57355559Y-63397372D01*
X57349487Y-63376474D01*
X57339176Y-63359039D01*
X57330481Y-63341291D01*
X57323021Y-63322450D01*
X57297033Y-63286680D01*
X57290517Y-63276760D01*
X57272049Y-63245532D01*
X57272047Y-63245529D01*
X57268011Y-63238705D01*
X57253690Y-63224384D01*
X57240849Y-63209350D01*
X57233600Y-63199373D01*
X57228941Y-63192960D01*
X57194864Y-63164769D01*
X57186085Y-63156779D01*
X55375023Y-61345716D01*
X55340997Y-61283404D01*
X55338808Y-61269791D01*
X55337404Y-61256427D01*
X55321443Y-61104571D01*
X55262428Y-60922943D01*
X55166941Y-60757555D01*
X55149635Y-60738334D01*
X55043576Y-60620544D01*
X55043575Y-60620543D01*
X55039154Y-60615633D01*
X54940058Y-60543635D01*
X54889995Y-60507262D01*
X54889994Y-60507261D01*
X54884653Y-60503381D01*
X54878625Y-60500697D01*
X54878623Y-60500696D01*
X54716220Y-60428390D01*
X54716219Y-60428390D01*
X54710189Y-60425705D01*
X54616789Y-60405852D01*
X54529845Y-60387371D01*
X54529840Y-60387371D01*
X54523388Y-60385999D01*
X54332414Y-60385999D01*
X54325962Y-60387371D01*
X54325957Y-60387371D01*
X54239013Y-60405852D01*
X54145613Y-60425705D01*
X54139586Y-60428388D01*
X54139578Y-60428391D01*
X54049148Y-60468653D01*
X53978781Y-60478087D01*
X53914484Y-60447980D01*
X53876671Y-60387891D01*
X53871900Y-60353546D01*
X53871900Y-60106194D01*
X53891902Y-60038073D01*
X53908805Y-60017099D01*
X53971899Y-59954005D01*
X54034211Y-59919979D01*
X54060994Y-59917100D01*
X55368938Y-59917100D01*
X55437059Y-59937102D01*
X55442999Y-59941164D01*
X55556605Y-60023704D01*
X55562633Y-60026388D01*
X55562635Y-60026389D01*
X55588878Y-60038073D01*
X55731069Y-60101380D01*
X55824470Y-60121233D01*
X55911413Y-60139714D01*
X55911418Y-60139714D01*
X55917870Y-60141086D01*
X56108844Y-60141086D01*
X56115296Y-60139714D01*
X56115301Y-60139714D01*
X56202244Y-60121233D01*
X56295645Y-60101380D01*
X56437836Y-60038073D01*
X56464079Y-60026389D01*
X56464081Y-60026388D01*
X56470109Y-60023704D01*
X56624610Y-59911452D01*
X56752397Y-59769530D01*
X56847884Y-59604142D01*
X56906899Y-59422514D01*
X56911898Y-59374956D01*
X56926171Y-59239151D01*
X56926861Y-59232586D01*
X56906899Y-59042658D01*
X56847884Y-58861030D01*
X56823115Y-58818128D01*
X56790898Y-58762328D01*
X56752397Y-58695642D01*
X56741545Y-58683589D01*
X56624610Y-58553720D01*
X56626843Y-58551709D01*
X56596439Y-58502426D01*
X56591968Y-58469160D01*
X56591968Y-57490116D01*
X56611970Y-57421995D01*
X56624326Y-57405813D01*
X56697508Y-57324536D01*
X56756183Y-57222908D01*
X56789691Y-57164871D01*
X56789692Y-57164870D01*
X56792995Y-57159148D01*
X56852010Y-56977520D01*
X56857756Y-56922855D01*
X56871282Y-56794157D01*
X56871972Y-56787592D01*
X56865643Y-56727375D01*
X56852700Y-56604227D01*
X56852700Y-56604225D01*
X56852010Y-56597664D01*
X56792995Y-56416036D01*
X56697508Y-56250648D01*
X56624250Y-56169286D01*
X56574143Y-56113637D01*
X56574142Y-56113636D01*
X56569721Y-56108726D01*
X56415220Y-55996474D01*
X56409192Y-55993790D01*
X56409190Y-55993789D01*
X56246787Y-55921483D01*
X56246786Y-55921483D01*
X56240756Y-55918798D01*
X56147355Y-55898945D01*
X56060412Y-55880464D01*
X56060407Y-55880464D01*
X56053955Y-55879092D01*
X55862981Y-55879092D01*
X55856529Y-55880464D01*
X55856524Y-55880464D01*
X55769581Y-55898945D01*
X55676180Y-55918798D01*
X55670150Y-55921483D01*
X55670149Y-55921483D01*
X55507746Y-55993789D01*
X55507744Y-55993790D01*
X55501716Y-55996474D01*
X55347215Y-56108726D01*
X55342794Y-56113636D01*
X55342793Y-56113637D01*
X55292687Y-56169286D01*
X55219428Y-56250648D01*
X55123941Y-56416036D01*
X55091733Y-56515163D01*
X55070628Y-56580116D01*
X55059177Y-56596862D01*
X55062944Y-56609557D01*
X55062256Y-56623072D01*
X55044964Y-56787592D01*
X55045654Y-56794157D01*
X55059181Y-56922855D01*
X55064926Y-56977520D01*
X55123941Y-57159148D01*
X55127244Y-57164870D01*
X55127245Y-57164871D01*
X55160753Y-57222908D01*
X55219428Y-57324536D01*
X55292605Y-57405807D01*
X55323321Y-57469813D01*
X55324968Y-57490116D01*
X55324968Y-58524100D01*
X55304966Y-58592221D01*
X55251310Y-58638714D01*
X55198968Y-58650100D01*
X53825163Y-58650100D01*
X53813979Y-58649573D01*
X53806491Y-58647899D01*
X53798568Y-58648148D01*
X53738433Y-58650038D01*
X53734475Y-58650100D01*
X53706544Y-58650100D01*
X53702629Y-58650595D01*
X53702625Y-58650595D01*
X53702567Y-58650603D01*
X53702538Y-58650606D01*
X53690696Y-58651539D01*
X53646510Y-58652927D01*
X53629144Y-58657972D01*
X53627058Y-58658578D01*
X53607706Y-58662586D01*
X53595468Y-58664132D01*
X53595466Y-58664133D01*
X53587603Y-58665126D01*
X53546486Y-58681406D01*
X53535285Y-58685241D01*
X53492806Y-58697582D01*
X53485987Y-58701615D01*
X53485982Y-58701617D01*
X53475371Y-58707893D01*
X53457621Y-58716590D01*
X53438783Y-58724048D01*
X53432367Y-58728709D01*
X53432366Y-58728710D01*
X53403025Y-58750028D01*
X53393101Y-58756547D01*
X53361860Y-58775022D01*
X53361855Y-58775026D01*
X53355037Y-58779058D01*
X53340713Y-58793382D01*
X53325681Y-58806221D01*
X53309293Y-58818128D01*
X53281112Y-58852193D01*
X53273122Y-58860973D01*
X52846147Y-59287948D01*
X52837861Y-59295488D01*
X52831382Y-59299600D01*
X52825957Y-59305377D01*
X52784757Y-59349251D01*
X52782002Y-59352093D01*
X52762265Y-59371830D01*
X52759785Y-59375027D01*
X52752082Y-59384047D01*
X52721814Y-59416279D01*
X52717995Y-59423225D01*
X52717993Y-59423228D01*
X52712052Y-59434034D01*
X52701201Y-59450553D01*
X52688786Y-59466559D01*
X52685641Y-59473828D01*
X52685638Y-59473832D01*
X52671226Y-59507137D01*
X52666009Y-59517787D01*
X52644705Y-59556540D01*
X52642734Y-59564215D01*
X52642734Y-59564216D01*
X52639667Y-59576162D01*
X52633263Y-59594866D01*
X52625219Y-59613455D01*
X52623980Y-59621278D01*
X52623977Y-59621288D01*
X52618301Y-59657124D01*
X52615895Y-59668744D01*
X52604900Y-59711570D01*
X52604900Y-59731824D01*
X52603349Y-59751534D01*
X52600180Y-59771543D01*
X52600926Y-59779435D01*
X52604341Y-59815561D01*
X52604900Y-59827419D01*
X52604900Y-60382700D01*
X52584898Y-60450821D01*
X52531242Y-60497314D01*
X52478900Y-60508700D01*
X52431713Y-60508700D01*
X52425261Y-60510072D01*
X52425256Y-60510072D01*
X52338313Y-60528553D01*
X52244912Y-60548406D01*
X52238882Y-60551091D01*
X52238881Y-60551091D01*
X52076478Y-60623397D01*
X52076476Y-60623398D01*
X52070448Y-60626082D01*
X51915947Y-60738334D01*
X51911526Y-60743244D01*
X51911525Y-60743245D01*
X51903060Y-60752647D01*
X51788160Y-60880256D01*
X51692673Y-61045644D01*
X51633658Y-61227272D01*
X51632968Y-61233833D01*
X51632968Y-61233835D01*
X51616293Y-61392492D01*
X51589280Y-61458149D01*
X51580077Y-61468419D01*
X51553971Y-61494524D01*
X51491658Y-61528548D01*
X51464877Y-61531427D01*
X45689500Y-61531427D01*
X45621379Y-61511425D01*
X45602153Y-61495084D01*
X45601880Y-61495387D01*
X45596968Y-61490964D01*
X45592553Y-61486061D01*
X45519695Y-61433126D01*
X45443394Y-61377690D01*
X45443393Y-61377689D01*
X45438052Y-61373809D01*
X45432024Y-61371125D01*
X45432022Y-61371124D01*
X45269619Y-61298818D01*
X45269618Y-61298818D01*
X45263588Y-61296133D01*
X45170187Y-61276280D01*
X45083244Y-61257799D01*
X45083239Y-61257799D01*
X45076787Y-61256427D01*
X44885813Y-61256427D01*
X44879361Y-61257799D01*
X44879356Y-61257799D01*
X44792413Y-61276280D01*
X44699012Y-61296133D01*
X44692982Y-61298818D01*
X44692981Y-61298818D01*
X44530578Y-61371124D01*
X44530576Y-61371125D01*
X44524548Y-61373809D01*
X44370047Y-61486061D01*
X44365626Y-61490971D01*
X44365625Y-61490972D01*
X44331792Y-61528548D01*
X44242260Y-61627983D01*
X44146773Y-61793371D01*
X44087758Y-61974999D01*
X44067796Y-62164927D01*
X44087758Y-62354855D01*
X44089798Y-62361133D01*
X44114192Y-62436210D01*
X44116220Y-62507177D01*
X44083454Y-62564241D01*
X43940700Y-62706995D01*
X43878388Y-62741021D01*
X43851605Y-62743900D01*
X43795713Y-62743900D01*
X43789261Y-62745272D01*
X43789256Y-62745272D01*
X43704547Y-62763278D01*
X43608912Y-62783606D01*
X43602882Y-62786291D01*
X43602881Y-62786291D01*
X43440478Y-62858597D01*
X43440476Y-62858598D01*
X43434448Y-62861282D01*
X43279947Y-62973534D01*
X43275526Y-62978444D01*
X43275525Y-62978445D01*
X43193931Y-63069065D01*
X43152160Y-63115456D01*
X43128302Y-63156779D01*
X43062354Y-63271005D01*
X43056673Y-63280844D01*
X42997658Y-63462472D01*
X42996968Y-63469033D01*
X42996968Y-63469035D01*
X42985896Y-63574378D01*
X42977696Y-63652400D01*
X42978386Y-63658965D01*
X42993947Y-63807016D01*
X42997658Y-63842328D01*
X42999698Y-63848606D01*
X43026472Y-63931009D01*
X43028499Y-64001977D01*
X42991837Y-64062775D01*
X42928125Y-64094100D01*
X42880872Y-64093282D01*
X42766200Y-64069325D01*
X42756648Y-64068085D01*
X42753416Y-64068000D01*
X42532915Y-64068000D01*
X42517676Y-64072475D01*
X42516471Y-64073865D01*
X42514800Y-64081548D01*
X42514800Y-64753885D01*
X42519275Y-64769124D01*
X42520665Y-64770329D01*
X42528348Y-64772000D01*
X43570029Y-64772000D01*
X43583560Y-64768027D01*
X43584437Y-64761926D01*
X43565088Y-64709337D01*
X43560338Y-64638499D01*
X43594639Y-64576339D01*
X43657102Y-64542591D01*
X43709534Y-64542582D01*
X43732661Y-64547498D01*
X43789256Y-64559528D01*
X43789261Y-64559528D01*
X43795713Y-64560900D01*
X43986687Y-64560900D01*
X43993139Y-64559528D01*
X43993144Y-64559528D01*
X44080087Y-64541047D01*
X44173488Y-64521194D01*
X44198916Y-64509873D01*
X44341922Y-64446203D01*
X44341924Y-64446202D01*
X44347952Y-64443518D01*
X44371925Y-64426101D01*
X44452906Y-64367264D01*
X44502453Y-64331266D01*
X44585135Y-64239438D01*
X44625821Y-64194252D01*
X44625822Y-64194251D01*
X44630240Y-64189344D01*
X44696912Y-64073865D01*
X44722423Y-64029679D01*
X44722424Y-64029678D01*
X44725727Y-64023956D01*
X44784742Y-63842328D01*
X44788454Y-63807016D01*
X44797144Y-63724331D01*
X44802107Y-63677106D01*
X44829120Y-63611450D01*
X44838322Y-63601182D01*
X44848100Y-63591404D01*
X44910412Y-63557378D01*
X44937195Y-63554499D01*
X45019988Y-63554499D01*
X45088109Y-63574501D01*
X45134602Y-63628157D01*
X45145298Y-63667329D01*
X45152088Y-63731927D01*
X45156164Y-63770712D01*
X45214618Y-63942421D01*
X45218312Y-63948425D01*
X45305967Y-64090907D01*
X45305970Y-64090911D01*
X45309662Y-64096912D01*
X45310403Y-64097669D01*
X45335708Y-64161459D01*
X45322052Y-64231129D01*
X45292238Y-64268709D01*
X45188304Y-64357790D01*
X45179556Y-64366976D01*
X45068089Y-64510680D01*
X45061365Y-64521440D01*
X44981071Y-64684619D01*
X44976643Y-64696526D01*
X44954050Y-64783261D01*
X44917523Y-64844140D01*
X44853880Y-64875607D01*
X44832119Y-64877500D01*
X44710113Y-64877500D01*
X44703661Y-64878872D01*
X44703656Y-64878872D01*
X44625430Y-64895500D01*
X44523312Y-64917206D01*
X44517282Y-64919891D01*
X44517281Y-64919891D01*
X44354878Y-64992197D01*
X44354876Y-64992198D01*
X44348848Y-64994882D01*
X44343507Y-64998762D01*
X44343506Y-64998763D01*
X44306121Y-65025925D01*
X44194347Y-65107134D01*
X44189926Y-65112044D01*
X44189925Y-65112045D01*
X44088678Y-65224492D01*
X44066560Y-65249056D01*
X43971073Y-65414444D01*
X43912058Y-65596072D01*
X43911368Y-65602633D01*
X43911368Y-65602635D01*
X43902960Y-65682635D01*
X43892096Y-65786000D01*
X43892786Y-65792565D01*
X43905817Y-65916544D01*
X43912058Y-65975928D01*
X43971073Y-66157556D01*
X44066560Y-66322944D01*
X44070978Y-66327851D01*
X44070979Y-66327852D01*
X44189925Y-66459955D01*
X44194347Y-66464866D01*
X44348848Y-66577118D01*
X44354876Y-66579802D01*
X44354878Y-66579803D01*
X44387673Y-66594404D01*
X44523312Y-66654794D01*
X44616712Y-66674647D01*
X44703656Y-66693128D01*
X44703661Y-66693128D01*
X44710113Y-66694500D01*
X44766006Y-66694500D01*
X44834127Y-66714502D01*
X44855101Y-66731405D01*
X45629607Y-67505911D01*
X45663633Y-67568223D01*
X45658568Y-67639038D01*
X45616021Y-67695874D01*
X45549501Y-67720685D01*
X45540512Y-67721006D01*
X39871464Y-67721006D01*
X39852078Y-67719506D01*
X39837246Y-67717196D01*
X39837243Y-67717196D01*
X39828374Y-67715815D01*
X39819469Y-67716979D01*
X39810500Y-67716870D01*
X39810510Y-67716056D01*
X39789003Y-67715764D01*
X39782818Y-67714785D01*
X39779175Y-67714208D01*
X39741676Y-67702024D01*
X39720727Y-67691349D01*
X39688839Y-67668179D01*
X39672221Y-67651561D01*
X39649050Y-67619671D01*
X39638376Y-67598723D01*
X39626195Y-67561238D01*
X39624776Y-67552283D01*
X39623343Y-67532552D01*
X39624585Y-67524578D01*
X39620473Y-67493135D01*
X39619409Y-67476751D01*
X39619410Y-67475493D01*
X39619669Y-66783977D01*
X39619808Y-66414053D01*
X39639836Y-66345939D01*
X39693509Y-66299467D01*
X39745808Y-66288100D01*
X39922687Y-66288100D01*
X39929139Y-66286728D01*
X39929144Y-66286728D01*
X40034534Y-66264326D01*
X40109488Y-66248394D01*
X40115519Y-66245709D01*
X40277922Y-66173403D01*
X40277924Y-66173402D01*
X40283952Y-66170718D01*
X40310719Y-66151271D01*
X40428902Y-66065405D01*
X40438453Y-66058466D01*
X40479908Y-66012426D01*
X40561821Y-65921452D01*
X40561822Y-65921451D01*
X40566240Y-65916544D01*
X40637819Y-65792566D01*
X40658423Y-65756879D01*
X40658424Y-65756878D01*
X40661727Y-65751156D01*
X40720742Y-65569528D01*
X40727638Y-65503921D01*
X40729336Y-65487765D01*
X40735077Y-65433135D01*
X40762090Y-65367479D01*
X40820312Y-65326849D01*
X40891257Y-65324146D01*
X40952401Y-65360228D01*
X40978637Y-65402799D01*
X40993110Y-65442136D01*
X40998677Y-65453549D01*
X41094508Y-65608108D01*
X41102260Y-65618174D01*
X41227208Y-65750303D01*
X41236826Y-65758605D01*
X41385787Y-65862908D01*
X41396881Y-65869108D01*
X41563780Y-65941332D01*
X41575883Y-65945171D01*
X41755400Y-65982675D01*
X41764952Y-65983915D01*
X41768184Y-65984000D01*
X41988685Y-65984000D01*
X42003924Y-65979525D01*
X42005129Y-65978135D01*
X42006800Y-65970452D01*
X42006800Y-65965885D01*
X42514800Y-65965885D01*
X42519275Y-65981124D01*
X42520665Y-65982329D01*
X42528348Y-65984000D01*
X42706247Y-65984000D01*
X42712622Y-65983677D01*
X42848077Y-65969918D01*
X42860517Y-65967364D01*
X43034044Y-65912984D01*
X43045732Y-65907975D01*
X43204779Y-65819813D01*
X43215212Y-65812562D01*
X43353291Y-65694215D01*
X43362044Y-65685024D01*
X43473511Y-65541320D01*
X43480235Y-65530560D01*
X43560532Y-65367375D01*
X43564955Y-65355481D01*
X43580051Y-65297530D01*
X43579617Y-65283436D01*
X43571436Y-65280000D01*
X42532915Y-65280000D01*
X42517676Y-65284475D01*
X42516471Y-65285865D01*
X42514800Y-65293548D01*
X42514800Y-65965885D01*
X42006800Y-65965885D01*
X42006800Y-65298115D01*
X42002325Y-65282876D01*
X42000935Y-65281671D01*
X41993252Y-65280000D01*
X40951571Y-65280000D01*
X40926375Y-65287398D01*
X40883404Y-65315015D01*
X40812407Y-65315016D01*
X40752681Y-65276633D01*
X40722595Y-65207292D01*
X40721433Y-65196243D01*
X40721432Y-65196240D01*
X40720742Y-65189672D01*
X40661727Y-65008044D01*
X40655599Y-64997429D01*
X40616651Y-64929971D01*
X40566240Y-64842656D01*
X40534668Y-64807591D01*
X40486837Y-64754470D01*
X40941549Y-64754470D01*
X40941983Y-64768564D01*
X40950164Y-64772000D01*
X41988685Y-64772000D01*
X42003924Y-64767525D01*
X42005129Y-64766135D01*
X42006800Y-64758452D01*
X42006800Y-64086115D01*
X42002325Y-64070876D01*
X42000935Y-64069671D01*
X41993252Y-64068000D01*
X41815353Y-64068000D01*
X41808978Y-64068323D01*
X41673523Y-64082082D01*
X41661083Y-64084636D01*
X41487556Y-64139016D01*
X41475868Y-64144025D01*
X41316821Y-64232187D01*
X41306388Y-64239438D01*
X41168309Y-64357785D01*
X41159556Y-64366976D01*
X41048089Y-64510680D01*
X41041365Y-64521440D01*
X40961068Y-64684625D01*
X40956645Y-64696519D01*
X40941549Y-64754470D01*
X40486837Y-64754470D01*
X40442875Y-64705645D01*
X40442874Y-64705644D01*
X40438453Y-64700734D01*
X40283952Y-64588482D01*
X40277924Y-64585798D01*
X40277922Y-64585797D01*
X40179851Y-64542133D01*
X40125755Y-64496153D01*
X40105100Y-64427026D01*
X40105100Y-57370624D01*
X40125102Y-57302503D01*
X40178758Y-57256010D01*
X40231100Y-57244624D01*
X40325843Y-57244624D01*
X40332295Y-57243252D01*
X40332300Y-57243252D01*
X40428008Y-57222908D01*
X40512644Y-57204918D01*
X40518675Y-57202233D01*
X40681078Y-57129927D01*
X40681080Y-57129926D01*
X40687108Y-57127242D01*
X40698362Y-57119066D01*
X40749027Y-57082255D01*
X40841609Y-57014990D01*
X40896301Y-56954248D01*
X40956746Y-56917010D01*
X41027730Y-56918362D01*
X41086714Y-56957876D01*
X41090507Y-56963134D01*
X41090614Y-56963052D01*
X41102260Y-56978174D01*
X41227208Y-57110303D01*
X41236826Y-57118605D01*
X41385787Y-57222908D01*
X41396881Y-57229108D01*
X41563780Y-57301332D01*
X41575883Y-57305171D01*
X41755400Y-57342675D01*
X41764952Y-57343915D01*
X41768184Y-57344000D01*
X41988685Y-57344000D01*
X42003924Y-57339525D01*
X42005129Y-57338135D01*
X42006800Y-57330452D01*
X42006800Y-57325885D01*
X42514800Y-57325885D01*
X42519275Y-57341124D01*
X42520665Y-57342329D01*
X42528348Y-57344000D01*
X42706247Y-57344000D01*
X42712622Y-57343677D01*
X42848077Y-57329918D01*
X42860517Y-57327364D01*
X43034044Y-57272984D01*
X43045732Y-57267975D01*
X43204779Y-57179813D01*
X43215212Y-57172562D01*
X43353291Y-57054215D01*
X43362044Y-57045024D01*
X43473511Y-56901320D01*
X43480235Y-56890560D01*
X43560532Y-56727375D01*
X43564955Y-56715481D01*
X43580051Y-56657530D01*
X43579821Y-56650075D01*
X44957163Y-56650075D01*
X45013110Y-56802136D01*
X45018677Y-56813549D01*
X45114508Y-56968108D01*
X45122260Y-56978174D01*
X45247206Y-57110301D01*
X45256828Y-57118607D01*
X45282079Y-57136288D01*
X45326407Y-57191745D01*
X45333715Y-57262365D01*
X45316192Y-57307014D01*
X45219527Y-57459334D01*
X45217162Y-57465976D01*
X45161043Y-57623575D01*
X45161042Y-57623580D01*
X45158681Y-57630210D01*
X45157848Y-57637198D01*
X45157847Y-57637201D01*
X45143168Y-57760302D01*
X45137204Y-57810320D01*
X45137940Y-57817323D01*
X45137940Y-57817324D01*
X45151715Y-57948380D01*
X45156164Y-57990712D01*
X45214618Y-58162421D01*
X45309662Y-58316912D01*
X45314593Y-58321947D01*
X45314595Y-58321950D01*
X45367715Y-58376194D01*
X45436571Y-58446507D01*
X45589038Y-58544765D01*
X45595658Y-58547174D01*
X45595661Y-58547176D01*
X45752866Y-58604394D01*
X45759485Y-58606803D01*
X45899569Y-58624500D01*
X45996410Y-58624500D01*
X46131055Y-58609397D01*
X46180378Y-58592221D01*
X46295694Y-58552064D01*
X46295697Y-58552062D01*
X46302352Y-58549745D01*
X46310322Y-58544765D01*
X46450202Y-58457359D01*
X46456176Y-58453626D01*
X46468412Y-58441475D01*
X46579885Y-58330778D01*
X46579888Y-58330774D01*
X46584882Y-58325815D01*
X46682073Y-58172666D01*
X46728895Y-58041174D01*
X46740557Y-58008425D01*
X46740558Y-58008420D01*
X46742919Y-58001790D01*
X46745367Y-57981266D01*
X46762290Y-57839344D01*
X46764396Y-57821680D01*
X46747813Y-57663900D01*
X46746172Y-57648288D01*
X46746171Y-57648286D01*
X46745436Y-57641288D01*
X46700948Y-57510604D01*
X46697930Y-57439673D01*
X46733740Y-57378369D01*
X46797009Y-57346157D01*
X46820226Y-57344000D01*
X47026247Y-57344000D01*
X47032622Y-57343677D01*
X47168077Y-57329918D01*
X47180517Y-57327364D01*
X47354044Y-57272984D01*
X47365732Y-57267975D01*
X47524779Y-57179813D01*
X47535212Y-57172562D01*
X47673291Y-57054215D01*
X47682044Y-57045024D01*
X47793511Y-56901320D01*
X47800235Y-56890560D01*
X47880532Y-56727375D01*
X47884955Y-56715481D01*
X47900051Y-56657530D01*
X47899617Y-56643436D01*
X47891436Y-56640000D01*
X44971571Y-56640000D01*
X44958040Y-56643973D01*
X44957163Y-56650075D01*
X43579821Y-56650075D01*
X43579617Y-56643436D01*
X43571436Y-56640000D01*
X42532915Y-56640000D01*
X42517676Y-56644475D01*
X42516471Y-56645865D01*
X42514800Y-56653548D01*
X42514800Y-57325885D01*
X42006800Y-57325885D01*
X42006800Y-56283900D01*
X42026802Y-56215779D01*
X42080458Y-56169286D01*
X42132800Y-56157900D01*
X50881080Y-56157900D01*
X50949201Y-56177902D01*
X50995694Y-56231558D01*
X51006390Y-56270729D01*
X51023365Y-56432234D01*
X51024058Y-56438828D01*
X51083073Y-56620456D01*
X51086376Y-56626178D01*
X51086377Y-56626179D01*
X51102179Y-56653548D01*
X51178560Y-56785844D01*
X51182978Y-56790751D01*
X51182979Y-56790752D01*
X51301925Y-56922855D01*
X51306347Y-56927766D01*
X51383468Y-56983798D01*
X51431745Y-57018873D01*
X51460848Y-57040018D01*
X51466876Y-57042702D01*
X51466878Y-57042703D01*
X51609482Y-57106194D01*
X51635312Y-57117694D01*
X51728713Y-57137547D01*
X51815656Y-57156028D01*
X51815661Y-57156028D01*
X51822113Y-57157400D01*
X51878006Y-57157400D01*
X51946127Y-57177402D01*
X51967101Y-57194305D01*
X52024043Y-57251247D01*
X52031587Y-57259537D01*
X52035700Y-57266018D01*
X52041477Y-57271443D01*
X52085367Y-57312658D01*
X52088209Y-57315413D01*
X52107931Y-57335135D01*
X52111073Y-57337572D01*
X52111133Y-57337619D01*
X52120145Y-57345317D01*
X52133578Y-57357931D01*
X52152379Y-57375586D01*
X52159322Y-57379403D01*
X52170131Y-57385345D01*
X52186653Y-57396198D01*
X52202659Y-57408614D01*
X52209937Y-57411764D01*
X52209938Y-57411764D01*
X52243237Y-57426174D01*
X52253887Y-57431391D01*
X52292640Y-57452695D01*
X52300315Y-57454666D01*
X52300316Y-57454666D01*
X52312262Y-57457733D01*
X52330967Y-57464137D01*
X52349555Y-57472181D01*
X52357378Y-57473420D01*
X52357388Y-57473423D01*
X52393224Y-57479099D01*
X52404844Y-57481505D01*
X52439989Y-57490528D01*
X52447670Y-57492500D01*
X52467924Y-57492500D01*
X52487634Y-57494051D01*
X52507643Y-57497220D01*
X52515535Y-57496474D01*
X52534280Y-57494702D01*
X52551662Y-57493059D01*
X52563519Y-57492500D01*
X53663138Y-57492500D01*
X53674321Y-57493027D01*
X53681814Y-57494702D01*
X53689740Y-57494453D01*
X53689741Y-57494453D01*
X53749891Y-57492562D01*
X53753850Y-57492500D01*
X53781761Y-57492500D01*
X53785696Y-57492003D01*
X53785761Y-57491995D01*
X53797598Y-57491062D01*
X53829856Y-57490048D01*
X53833875Y-57489922D01*
X53841794Y-57489673D01*
X53861248Y-57484021D01*
X53880605Y-57480013D01*
X53892835Y-57478468D01*
X53892836Y-57478468D01*
X53900702Y-57477474D01*
X53908073Y-57474555D01*
X53908075Y-57474555D01*
X53941817Y-57461196D01*
X53953047Y-57457351D01*
X53987888Y-57447229D01*
X53987889Y-57447229D01*
X53995498Y-57445018D01*
X54002317Y-57440985D01*
X54002322Y-57440983D01*
X54012933Y-57434707D01*
X54030681Y-57426012D01*
X54049522Y-57418552D01*
X54085292Y-57392564D01*
X54095212Y-57386048D01*
X54126440Y-57367580D01*
X54126443Y-57367578D01*
X54133267Y-57363542D01*
X54147588Y-57349221D01*
X54162622Y-57336380D01*
X54164336Y-57335135D01*
X54179012Y-57324472D01*
X54207203Y-57290395D01*
X54215193Y-57281616D01*
X54595847Y-56900962D01*
X54604137Y-56893418D01*
X54610618Y-56889305D01*
X54657259Y-56839637D01*
X54660013Y-56836796D01*
X54679734Y-56817075D01*
X54682212Y-56813880D01*
X54689918Y-56804858D01*
X54714758Y-56778406D01*
X54720186Y-56772626D01*
X54729946Y-56754873D01*
X54740799Y-56738350D01*
X54748353Y-56728611D01*
X54753213Y-56722346D01*
X54770776Y-56681762D01*
X54775983Y-56671132D01*
X54797295Y-56632365D01*
X54799266Y-56624688D01*
X54799268Y-56624683D01*
X54802332Y-56612747D01*
X54808738Y-56594035D01*
X54816781Y-56575450D01*
X54817202Y-56572794D01*
X54829174Y-56554048D01*
X54824846Y-56537582D01*
X54828753Y-56509847D01*
X54835128Y-56485016D01*
X54835128Y-56485015D01*
X54837100Y-56477335D01*
X54837100Y-56457074D01*
X54838651Y-56437363D01*
X54839459Y-56432265D01*
X54841819Y-56417362D01*
X54837659Y-56373351D01*
X54837100Y-56361494D01*
X54837100Y-55949463D01*
X54837627Y-55938280D01*
X54839302Y-55930787D01*
X54837162Y-55862696D01*
X54837100Y-55858739D01*
X54837100Y-55830839D01*
X54836596Y-55826848D01*
X54835663Y-55815006D01*
X54834523Y-55778731D01*
X54834274Y-55770806D01*
X54828621Y-55751347D01*
X54824612Y-55731988D01*
X54824446Y-55730678D01*
X54822074Y-55711898D01*
X54819158Y-55704532D01*
X54819156Y-55704526D01*
X54805800Y-55670793D01*
X54801955Y-55659563D01*
X54791830Y-55624712D01*
X54791830Y-55624711D01*
X54789619Y-55617102D01*
X54779305Y-55599661D01*
X54770608Y-55581908D01*
X54766072Y-55570453D01*
X54763152Y-55563078D01*
X54737163Y-55527307D01*
X54730647Y-55517387D01*
X54712178Y-55486158D01*
X54708142Y-55479333D01*
X54693821Y-55465012D01*
X54680980Y-55449978D01*
X54673731Y-55440001D01*
X54669072Y-55433588D01*
X54662968Y-55428538D01*
X54662963Y-55428533D01*
X54635002Y-55405402D01*
X54626221Y-55397412D01*
X53751352Y-54522542D01*
X53743818Y-54514263D01*
X53739705Y-54507782D01*
X53690053Y-54461156D01*
X53687212Y-54458402D01*
X53667475Y-54438665D01*
X53664278Y-54436185D01*
X53655256Y-54428480D01*
X53641821Y-54415864D01*
X53623026Y-54398214D01*
X53616080Y-54394395D01*
X53616077Y-54394393D01*
X53605271Y-54388452D01*
X53588752Y-54377601D01*
X53588288Y-54377241D01*
X53572746Y-54365186D01*
X53565477Y-54362041D01*
X53565473Y-54362038D01*
X53532168Y-54347626D01*
X53521518Y-54342409D01*
X53482765Y-54321105D01*
X53463142Y-54316067D01*
X53444439Y-54309663D01*
X53433125Y-54304767D01*
X53433124Y-54304767D01*
X53425850Y-54301619D01*
X53418027Y-54300380D01*
X53418017Y-54300377D01*
X53382181Y-54294701D01*
X53370561Y-54292295D01*
X53335416Y-54283272D01*
X53335415Y-54283272D01*
X53327735Y-54281300D01*
X53307481Y-54281300D01*
X53287770Y-54279749D01*
X53275591Y-54277820D01*
X53267762Y-54276580D01*
X53238491Y-54279347D01*
X53223744Y-54280741D01*
X53211886Y-54281300D01*
X41379167Y-54281300D01*
X41367984Y-54280773D01*
X41360491Y-54279098D01*
X41352565Y-54279347D01*
X41352564Y-54279347D01*
X41292414Y-54281238D01*
X41288455Y-54281300D01*
X41260544Y-54281300D01*
X41256610Y-54281797D01*
X41256609Y-54281797D01*
X41256544Y-54281805D01*
X41244707Y-54282738D01*
X41212890Y-54283738D01*
X41208429Y-54283878D01*
X41200510Y-54284127D01*
X41182854Y-54289256D01*
X41181058Y-54289778D01*
X41161706Y-54293786D01*
X41154635Y-54294680D01*
X41141603Y-54296326D01*
X41134234Y-54299243D01*
X41134232Y-54299244D01*
X41100497Y-54312600D01*
X41089269Y-54316445D01*
X41046807Y-54328782D01*
X41039985Y-54332816D01*
X41039979Y-54332819D01*
X41029368Y-54339094D01*
X41011618Y-54347790D01*
X41000156Y-54352328D01*
X41000151Y-54352331D01*
X40992783Y-54355248D01*
X40975370Y-54367899D01*
X40957025Y-54381227D01*
X40947107Y-54387743D01*
X40935863Y-54394393D01*
X40909037Y-54410258D01*
X40894713Y-54424582D01*
X40879681Y-54437421D01*
X40863293Y-54449328D01*
X40861577Y-54451402D01*
X40800305Y-54482401D01*
X40777403Y-54484500D01*
X40501942Y-54484500D01*
X40490759Y-54483973D01*
X40483266Y-54482298D01*
X40475340Y-54482547D01*
X40475339Y-54482547D01*
X40415189Y-54484438D01*
X40411230Y-54484500D01*
X40383319Y-54484500D01*
X40379385Y-54484997D01*
X40379384Y-54484997D01*
X40379319Y-54485005D01*
X40367482Y-54485938D01*
X40335665Y-54486938D01*
X40331204Y-54487078D01*
X40323285Y-54487327D01*
X40305629Y-54492456D01*
X40303833Y-54492978D01*
X40284481Y-54496986D01*
X40277410Y-54497880D01*
X40264378Y-54499526D01*
X40257009Y-54502443D01*
X40257007Y-54502444D01*
X40223272Y-54515800D01*
X40212044Y-54519645D01*
X40169582Y-54531982D01*
X40162760Y-54536016D01*
X40162754Y-54536019D01*
X40152143Y-54542294D01*
X40134393Y-54550990D01*
X40122931Y-54555528D01*
X40122926Y-54555531D01*
X40115558Y-54558448D01*
X40109143Y-54563109D01*
X40079800Y-54584427D01*
X40069882Y-54590943D01*
X40051194Y-54601995D01*
X40031812Y-54613458D01*
X40017488Y-54627782D01*
X40002456Y-54640621D01*
X39986068Y-54652528D01*
X39957887Y-54686593D01*
X39949897Y-54695373D01*
X39839287Y-54805983D01*
X39776975Y-54840009D01*
X39706160Y-54834944D01*
X39649324Y-54792397D01*
X39624513Y-54725877D01*
X39624192Y-54716841D01*
X39624223Y-54634796D01*
X39624482Y-53943125D01*
X39625981Y-53923801D01*
X39629691Y-53899974D01*
X39628527Y-53891069D01*
X39628636Y-53882100D01*
X39629451Y-53882110D01*
X39629742Y-53860604D01*
X39631298Y-53850777D01*
X39643481Y-53813280D01*
X39654155Y-53792331D01*
X39677325Y-53760443D01*
X39693943Y-53743825D01*
X39725833Y-53720654D01*
X39746785Y-53709979D01*
X39784267Y-53697800D01*
X39793268Y-53696374D01*
X39812963Y-53694945D01*
X39820924Y-53696185D01*
X39852486Y-53692058D01*
X39868821Y-53690994D01*
X64471736Y-53690994D01*
X64491122Y-53692494D01*
G37*
%TD.AperFunction*%
%TD*%
M02*
